HIERARCHY
ROOT root
{
  OFFSET 0 93.2929 0
  CHANNELS 6 Xposition Yposition Zposition Zrotation Xrotation Yrotation
  JOINT torso_1
  {
    OFFSET 0 5.07867 -1.15138
    CHANNELS 6 Xposition Yposition Zposition Zrotation Xrotation Yrotation
    JOINT torso_2
    {
      OFFSET 0 5.61661 1.07143
      CHANNELS 6 Xposition Yposition Zposition Zrotation Xrotation Yrotation
      JOINT torso_3
      {
        OFFSET -1.02604e-17 5.98978 0.11501
        CHANNELS 6 Xposition Yposition Zposition Zrotation Xrotation Yrotation
        JOINT torso_4
        {
          OFFSET -1.10457e-17 6.50583 -0.443523
          CHANNELS 6 Xposition Yposition Zposition Zrotation Xrotation Yrotation
          JOINT torso_5
          {
            OFFSET -1.97295e-17 7.60548 -1.50593
            CHANNELS 6 Xposition Yposition Zposition Zrotation Xrotation Yrotation
            JOINT torso_6
            {
              OFFSET -2.53307e-17 9.49737 -0.914492
              CHANNELS 6 Xposition Yposition Zposition Zrotation Xrotation Yrotation
              JOINT torso_7
              {
                OFFSET -2.90401e-17 10.5513 1.57691
                CHANNELS 6 Xposition Yposition Zposition Zrotation Xrotation Yrotation
                JOINT neck_1
                {
                  OFFSET -1.29193e-17 4.78644 0.715339
                  CHANNELS 6 Xposition Yposition Zposition Zrotation Xrotation Yrotation
                  JOINT neck_2
                  {
                    OFFSET -1.8116e-17 4.82109 0.421791
                    CHANNELS 6 Xposition Yposition Zposition Zrotation Xrotation Yrotation
                    JOINT head
                    {
                      OFFSET -2.00958e-17 4.83041 0.765062
                      CHANNELS 6 Xposition Yposition Zposition Zrotation Xrotation Yrotation
                      End Site
                      {
                        OFFSET 0 0.1 0
                      }
                    }
                  }
                }
                JOINT l_shoulder
                {
                  OFFSET 1.23299 -7.60731 7.53374
                  CHANNELS 6 Xposition Yposition Zposition Zrotation Xrotation Yrotation
                  JOINT l_up_arm
                  {
                    OFFSET 12.9547 3.2495 -3.26872
                    CHANNELS 6 Xposition Yposition Zposition Zrotation Xrotation Yrotation
                    JOINT l_low_arm
                    {
                      OFFSET 29.2081 0.0598081 0.137039
                      CHANNELS 6 Xposition Yposition Zposition Zrotation Xrotation Yrotation
                      JOINT l_hand
                      {
                        OFFSET 24.234 0.0496219 0.113701
                        CHANNELS 6 Xposition Yposition Zposition Zrotation Xrotation Yrotation
                        End Site
                        {
                          OFFSET 0.1 0 0
                        }
                      }
                    }
                  }
                }
                JOINT r_shoulder
                {
                  OFFSET -1.23299 -7.60729 7.53365
                  CHANNELS 6 Xposition Yposition Zposition Zrotation Xrotation Yrotation
                  JOINT r_up_arm
                  {
                    OFFSET -12.9547 3.2495 -3.26872
                    CHANNELS 6 Xposition Yposition Zposition Zrotation Xrotation Yrotation
                    JOINT r_low_arm
                    {
                      OFFSET -29.2081 0.0598081 0.137039
                      CHANNELS 6 Xposition Yposition Zposition Zrotation Xrotation Yrotation
                      JOINT r_hand
                      {
                        OFFSET -24.234 0.0496218 0.113702
                        CHANNELS 6 Xposition Yposition Zposition Zrotation Xrotation Yrotation
                        End Site
                        {
                          OFFSET -0.1 0 0
                        }
                      }
                    }
                  }
                }
              }
            }
          }
        }
      }
    }
  }
  JOINT l_up_leg
  {
    OFFSET 9.23673 -4.20556 2.0327
    CHANNELS 6 Xposition Yposition Zposition Zrotation Xrotation Yrotation
    JOINT l_low_leg
    {
      OFFSET -0.852353 -38.7721 -0.655187
      CHANNELS 6 Xposition Yposition Zposition Zrotation Xrotation Yrotation
      JOINT l_foot
      {
        OFFSET -2.32622 -40.4017 -6.04875
        CHANNELS 6 Xposition Yposition Zposition Zrotation Xrotation Yrotation
        JOINT l_toes
        {
          OFFSET 0.779096 -9.8844 12.4959
          CHANNELS 6 Xposition Yposition Zposition Zrotation Xrotation Yrotation
          End Site
          {
            OFFSET 0 0 0.1
          }
        }
      }
    }
  }
  JOINT r_up_leg
  {
    OFFSET -9.23673 -4.20556 2.0327
    CHANNELS 6 Xposition Yposition Zposition Zrotation Xrotation Yrotation
    JOINT r_low_leg
    {
      OFFSET 0.852353 -38.7721 -0.655187
      CHANNELS 6 Xposition Yposition Zposition Zrotation Xrotation Yrotation
      JOINT r_foot
      {
        OFFSET 2.32622 -40.4017 -6.04875
        CHANNELS 6 Xposition Yposition Zposition Zrotation Xrotation Yrotation
        JOINT r_toes
        {
          OFFSET -0.779096 -9.8844 12.4959
          CHANNELS 6 Xposition Yposition Zposition Zrotation Xrotation Yrotation
          End Site
          {
            OFFSET 0 0 0.1
          }
        }
      }
    }
  }
}
MOTION
Frames: 5
Frame Time: 0.016667
6.95223 91.8482 55.1329 7.55277 -4.3483 -1.21023 0 5.07867 -1.15138 -2.6735 5.64648 0.83572 0 5.61661 1.07143 -2.26317 3.70015 0.602117 -1.02604e-17 5.98978 0.11501 -1.80492 2.05325 0.738837 -1.10457e-17 6.50583 -0.443523 -1.22979 -1.24037 0.709222 -1.97295e-17 7.60548 -1.50593 -0.48831 -2.69517 0.806901 -2.53307e-17 9.49737 -0.914492 0.328105 -5.03039 0.467051 -2.90401e-17 10.5513 1.57691 0.126535 1.17401 -0.0342337 -1.29193e-17 4.78644 0.715339 0.0192683 5.36869 0.286709 -1.8116e-17 4.82109 0.421791 0.604336 -3.02867 -0.142242 -2.00958e-17 4.83041 0.765062 1.23987 -4.38148 1.35219 1.23299 -7.60731 7.53374 21.2818 6.48511 1.12182 12.9547 3.2495 -3.26872 -100.37 28.9553 7.15201 29.2081 0.0598081 0.137039 4.08819 -0.702422 -20.0831 24.234 0.0496219 0.113701 -4.48676 -16.5284 0.761413 -1.23299 -7.60729 7.53365 -16.4083 3.92705 -1.03254 -12.9547 3.2495 -3.26872 78.8489 20.9221 2.24705 -29.2081 0.0598081 0.137039 -5.75975 -1.45319 28.8924 -24.234 0.0496218 0.113702 8.41503 -15.0852 6.04906 9.23673 -4.20556 2.0327 -7.45593 0.894455 -15.1479 -0.852353 -38.7721 -0.655187 -1.02701 3.8353 -0.0325783 -2.32622 -40.4017 -6.04875 -0.361544 -0.933724 15.2284 0.779096 -9.8844 12.4959 3.19141e-16 -7.85942e-16 3.22738e-18 -9.23673 -4.20556 2.0327 -8.48635 -12.1928 16.0225 0.852353 -38.7721 -0.655187 4.33523 15.8994 -0.326149 2.32622 -40.4017 -6.04875 -0.710747 -5.08076 -15.3181 -0.779096 -9.8844 12.4959 -1.18494e-15 -5.40689e-16 -1.27195e-14 
6.94768 91.8539 55.1369 7.5598 -4.39017 -1.22858 0 5.07867 -1.15138 -2.50353 5.58309 0.850411 0 5.61661 1.07143 -2.16533 3.64237 0.647598 -1.02604e-17 5.98978 0.11501 -1.77005 2.006 0.784462 -1.10457e-17 6.50583 -0.443523 -1.24841 -1.21753 0.74899 -1.97295e-17 7.60548 -1.50593 -0.547932 -2.6773 0.837398 -2.53307e-17 9.49737 -0.914492 0.248549 -5.02844 0.547559 -2.90401e-17 10.5513 1.57691 0.140009 1.1504 -0.0484762 -1.29193e-17 4.78644 0.715339 -0.0163015 5.20243 0.113917 -1.8116e-17 4.82109 0.421791 0.510555 -2.93713 -0.225898 -2.00958e-17 4.83041 0.765062 1.15007 -4.02302 1.31362 1.23299 -7.60731 7.53374 21.166 6.57548 0.554538 12.9547 3.2495 -3.26872 -99.7815 30.6499 7.19917 29.2081 0.0598081 0.137039 4.09466 -0.704752 -20.1162 24.234 0.0496219 0.113701 -4.69424 -18.5264 0.290237 -1.23299 -7.60729 7.53365 -18.7344 3.70066 -1.00857 -12.9547 3.2495 -3.26872 74.6404 23.6846 2.95963 -29.2081 0.0598081 0.137039 -6.21726 -1.71578 31.4223 -24.234 0.0496218 0.113702 11.146 -19.033 8.17408 9.23673 -4.20556 2.0327 -7.4727 0.942161 -15.0995 -0.852353 -38.7721 -0.655187 -1.02164 3.81527 -0.0325868 -2.32622 -40.4017 -6.04875 -0.325174 -0.860309 15.2164 0.779096 -9.8844 12.4959 4.22417e-16 -7.82715e-16 2.88531e-33 -9.23673 -4.20556 2.0327 -8.5158 -12.1082 15.9945 0.852353 -38.7721 -0.655187 4.31427 15.8259 -0.321707 2.32622 -40.4017 -6.04875 -0.567091 -5.12677 -15.3289 -0.779096 -9.8844 12.4959 -8.02907e-16 -5.52627e-16 -1.27374e-14 
6.94275 91.8594 55.1395 7.55311 -4.42735 -1.25 0 5.07867 -1.15138 -2.34472 5.19146 0.959333 0 5.61661 1.07143 -2.07875 3.42007 0.781307 -1.02604e-17 5.98978 0.11501 -1.72979 1.97334 0.916529 -1.10457e-17 6.50583 -0.443523 -1.2661 -0.936252 0.887505 -1.97295e-17 7.60548 -1.50593 -0.586257 -2.24881 0.979743 -2.53307e-17 9.49737 -0.914492 0.215525 -4.40121 0.708845 -2.90401e-17 10.5513 1.57691 0.130181 1.1027 -0.0415505 -1.29193e-17 4.78644 0.715339 -0.21349 4.43171 -0.456574 -1.8116e-17 4.82109 0.421791 0.330312 -3.12716 -0.500918 -2.00958e-17 4.83041 0.765062 1.30437 -3.57067 1.35313 1.23299 -7.60731 7.53374 19.9765 6.38911 0.168335 12.9547 3.2495 -3.26872 -98.645 32.4711 6.27143 29.2081 0.0598081 0.137039 4.0563 -0.691004 -19.9203 24.234 0.0496219 0.113701 -4.02088 -20.111 0.347101 -1.23299 -7.60729 7.53365 -17.5543 3.47771 -0.601627 -12.9547 3.2495 -3.26872 71.106 25.2123 3.76978 -29.2081 0.0598081 0.137039 -6.68816 -2.0152 34.0964 -24.234 0.0496218 0.113702 9.61997 -21.1757 8.30228 9.23673 -4.20556 2.0327 -7.46359 1.00219 -15.2125 -0.852353 -38.7721 -0.655187 -1.0131 3.78341 -0.0325965 -2.32622 -40.4017 -6.04875 -0.312834 -0.840938 15.213 0.779096 -9.8844 12.4959 -4.60462e-16 -8.19501e-16 3.67866e-17 -9.23673 -4.20556 2.0327 -8.49881 -12.0663 16.1046 0.852353 -38.7721 -0.655187 4.30945 15.809 -0.320689 2.32622 -40.4017 -6.04875 -0.553766 -5.08985 -15.3277 -0.779096 -9.8844 12.4959 -5.96354e-16 -5.59082e-16 -1.27471e-14 
6.93708 91.8645 55.1415 7.53163 -4.45768 -1.27973 0 5.07867 -1.15138 -2.23359 4.8165 1.11084 0 5.61661 1.07143 -2.02242 3.21801 0.957962 -1.02604e-17 5.98978 0.11501 -1.69594 1.969 1.10108 -1.10457e-17 6.50583 -0.443523 -1.27055 -0.648077 1.08677 -1.97295e-17 7.60548 -1.50593 -0.58126 -1.81928 1.19154 -2.53307e-17 9.49737 -0.914492 0.251932 -3.76961 0.900934 -2.90401e-17 10.5513 1.57691 0.126837 1.06685 -0.00554139 -1.29193e-17 4.78644 0.715339 -0.489275 3.1446 -1.05432 -1.8116e-17 4.82109 0.421791 0.287469 -3.05084 -0.791909 -2.00958e-17 4.83041 0.765062 1.31555 -2.97344 1.1394 1.23299 -7.60731 7.53374 19.0322 6.30876 -0.0325207 12.9547 3.2495 -3.26872 -97.8781 34.2689 5.09128 29.2081 0.0598081 0.137039 4.06866 -0.695421 -19.9834 24.234 0.0496219 0.113701 -3.13133 -21.1428 0.834209 -1.23299 -7.60729 7.53365 -14.6302 3.3742 0.165001 -12.9547 3.2495 -3.26872 67.4315 24.0508 4.88227 -29.2081 0.0598081 0.137039 -7.10786 -2.30917 36.5497 -24.234 0.0496218 0.113702 7.51621 -21.0658 7.16799 9.23673 -4.20556 2.0327 -7.42575 1.00351 -15.1447 -0.852353 -38.7721 -0.655187 -1.02613 3.83203 -0.0325798 -2.32622 -40.4017 -6.04875 -0.539221 -0.919609 15.257 0.779096 -9.8844 12.4959 -4.75998e-16 -8.14017e-16 3.13029e-17 -9.23673 -4.20556 2.0327 -8.49131 -12.0661 16.2438 0.852353 -38.7721 -0.655187 4.31648 15.8336 -0.322174 2.32622 -40.4017 -6.04875 -0.27721 -5.13167 -15.3439 -0.779096 -9.8844 12.4959 -3.02061e-16 -5.77475e-16 -1.27563e-14 
6.93149 91.8706 55.141 7.50756 -4.49927 -1.32024 0 5.07867 -1.15138 -2.15549 4.57914 1.21521 0 5.61661 1.07143 -1.98839 3.06776 1.08734 -1.02604e-17 5.98978 0.11501 -1.68297 1.91261 1.2408 -1.10457e-17 6.50583 -0.443523 -1.28151 -0.559322 1.23294 -1.97295e-17 7.60548 -1.50593 -0.58143 -1.66809 1.34421 -2.53307e-17 9.49737 -0.914492 0.280952 -3.56346 1.04118 -2.90401e-17 10.5513 1.57691 0.145491 1.05112 0.0163709 -1.29193e-17 4.78644 0.715339 -0.63976 2.29649 -1.3102 -1.8116e-17 4.82109 0.421791 0.296747 -2.66531 -0.918535 -2.00958e-17 4.83041 0.765062 1.2117 -2.38981 0.752041 1.23299 -7.60731 7.53374 18.8942 6.44029 -0.28617 12.9547 3.2495 -3.26872 -97.7653 36.0776 4.7142 29.2081 0.0598081 0.137039 4.045 -0.686984 -19.8626 24.234 0.0496219 0.113701 -2.6832 -22.3827 0.77895 -1.23299 -7.60729 7.53365 -13.8432 3.27266 0.550193 -12.9547 3.2495 -3.26872 63.7709 23.3578 5.8861 -29.2081 0.0598081 0.137039 -7.45015 -2.56953 38.6074 -24.234 0.0496218 0.113702 7.70818 -21.9252 7.23087 9.23673 -4.20556 2.0327 -7.41632 1.02114 -14.8539 -0.852353 -38.7721 -0.655187 -1.03813 3.8768 -0.0325547 -2.32622 -40.4017 -6.04875 -0.470828 -0.886 15.2465 0.779096 -9.8844 12.4959 -3.72721e-16 -8.07563e-16 2.48481e-17 -9.23673 -4.20556 2.0327 -8.47488 -11.9746 16.2622 0.852353 -38.7721 -0.655187 4.28663 15.7288 -0.315889 2.32622 -40.4017 -6.04875 -0.245034 -5.13236 -15.3432 -0.779096 -9.8844 12.4959 -4.93078e-16 -5.65537e-16 -1.27503e-14 
